# https://github.com/mikedh/trimesh
v -2.76000000 4.54000000 0.00000000
v -2.76000000 4.54000000 1.00000000
v -2.76000000 -1.51000000 0.00000000
v -2.76000000 -1.51000000 1.00000000
v 8.59000000 -1.51000000 0.00000000
v 8.59000000 -1.51000000 1.00000000
v 8.59000000 4.54000000 0.00000000
v 8.59000000 4.54000000 1.00000000
v -2.76000000 4.49000000 0.00000000
v -2.76000000 4.49000000 1.00000000
v -2.71000000 4.54000000 0.00000000
v -2.71000000 4.54000000 1.00000000
v 8.54000000 4.54000000 0.00000000
v 8.54000000 4.54000000 1.00000000
v 8.59000000 4.49000000 0.00000000
v 8.59000000 4.49000000 1.00000000
v 8.59000000 -1.46000000 0.00000000
v 8.59000000 -1.46000000 1.00000000
v 8.54000000 -1.51000000 0.00000000
v 8.54000000 -1.51000000 1.00000000
v -2.71000000 -1.51000000 0.00000000
v -2.71000000 -1.51000000 1.00000000
v -2.76000000 -1.46000000 0.00000000
v -2.76000000 -1.46000000 1.00000000
v -1.66000000 4.14000000 0.00000000
v -1.66000000 4.14000000 1.00000000
v -1.71000000 4.09000000 0.00000000
v -1.71000000 4.09000000 1.00000000
v -1.76000000 4.09000000 0.00000000
v -1.76000000 4.09000000 1.00000000
v -1.76000000 4.04000000 0.00000000
v -1.76000000 4.04000000 1.00000000
v -1.81000000 3.99000000 0.00000000
v -1.81000000 3.99000000 1.00000000
v -1.86000000 3.99000000 0.00000000
v -1.86000000 3.99000000 1.00000000
v -1.86000000 3.79000000 0.00000000
v -1.86000000 3.79000000 1.00000000
v -1.91000000 3.74000000 0.00000000
v -1.91000000 3.74000000 1.00000000
v -1.91000000 3.69000000 0.00000000
v -1.91000000 3.69000000 1.00000000
v -1.96000000 3.64000000 0.00000000
v -1.96000000 3.64000000 1.00000000
v -1.96000000 3.54000000 0.00000000
v -1.96000000 3.54000000 1.00000000
v -2.01000000 3.49000000 0.00000000
v -2.01000000 3.49000000 1.00000000
v -2.01000000 3.34000000 0.00000000
v -2.01000000 3.34000000 1.00000000
v -2.06000000 3.29000000 0.00000000
v -2.06000000 3.29000000 1.00000000
v -2.06000000 3.24000000 0.00000000
v -2.06000000 3.24000000 1.00000000
v -2.11000000 3.19000000 0.00000000
v -2.11000000 3.19000000 1.00000000
v -2.11000000 2.84000000 0.00000000
v -2.11000000 2.84000000 1.00000000
v -2.16000000 2.79000000 0.00000000
v -2.16000000 2.79000000 1.00000000
v -2.16000000 2.69000000 0.00000000
v -2.16000000 2.69000000 1.00000000
v -2.11000000 2.64000000 0.00000000
v -2.11000000 2.64000000 1.00000000
v -2.11000000 1.24000000 0.00000000
v -2.11000000 1.24000000 1.00000000
v -2.16000000 1.19000000 0.00000000
v -2.16000000 1.19000000 1.00000000
v -2.16000000 1.09000000 0.00000000
v -2.16000000 1.09000000 1.00000000
v -2.21000000 1.04000000 0.00000000
v -2.21000000 1.04000000 1.00000000
v -2.21000000 0.94000000 0.00000000
v -2.21000000 0.94000000 1.00000000
v -2.26000000 0.89000000 0.00000000
v -2.26000000 0.89000000 1.00000000
v -2.26000000 0.69000000 0.00000000
v -2.26000000 0.69000000 1.00000000
v -2.31000000 0.64000000 0.00000000
v -2.31000000 0.64000000 1.00000000
v -2.31000000 0.44000000 0.00000000
v -2.31000000 0.44000000 1.00000000
v -2.36000000 0.39000000 0.00000000
v -2.36000000 0.39000000 1.00000000
v -2.36000000 -0.21000000 0.00000000
v -2.36000000 -0.21000000 1.00000000
v -2.41000000 -0.26000000 0.00000000
v -2.41000000 -0.26000000 1.00000000
v -2.41000000 -0.36000000 0.00000000
v -2.41000000 -0.36000000 1.00000000
v -2.46000000 -0.41000000 0.00000000
v -2.46000000 -0.41000000 1.00000000
v -2.51000000 -0.41000000 0.00000000
v -2.51000000 -0.41000000 1.00000000
v -2.51000000 -0.51000000 0.00000000
v -2.51000000 -0.51000000 1.00000000
v -2.46000000 -0.51000000 0.00000000
v -2.46000000 -0.51000000 1.00000000
v -2.41000000 -0.56000000 0.00000000
v -2.41000000 -0.56000000 1.00000000
v -2.41000000 -0.61000000 0.00000000
v -2.41000000 -0.61000000 1.00000000
v -2.36000000 -0.66000000 0.00000000
v -2.36000000 -0.66000000 1.00000000
v -2.36000000 -0.71000000 0.00000000
v -2.36000000 -0.71000000 1.00000000
v -2.31000000 -0.76000000 0.00000000
v -2.31000000 -0.76000000 1.00000000
v -2.36000000 -0.81000000 0.00000000
v -2.36000000 -0.81000000 1.00000000
v -2.36000000 -0.91000000 0.00000000
v -2.36000000 -0.91000000 1.00000000
v -2.31000000 -0.91000000 0.00000000
v -2.31000000 -0.91000000 1.00000000
v -2.26000000 -0.96000000 0.00000000
v -2.26000000 -0.96000000 1.00000000
v -2.26000000 -1.06000000 0.00000000
v -2.26000000 -1.06000000 1.00000000
v -1.81000000 -1.06000000 0.00000000
v -1.81000000 -1.06000000 1.00000000
v -1.76000000 -1.11000000 0.00000000
v -1.76000000 -1.11000000 1.00000000
v -1.01000000 -1.11000000 0.00000000
v -1.01000000 -1.11000000 1.00000000
v -0.96000000 -1.16000000 0.00000000
v -0.96000000 -1.16000000 1.00000000
v 0.09000000 -1.16000000 0.00000000
v 0.09000000 -1.16000000 1.00000000
v 0.14000000 -1.21000000 0.00000000
v 0.14000000 -1.21000000 1.00000000
v 0.44000000 -1.21000000 0.00000000
v 0.44000000 -1.21000000 1.00000000
v 0.49000000 -1.16000000 0.00000000
v 0.49000000 -1.16000000 1.00000000
v 0.64000000 -1.16000000 0.00000000
v 0.64000000 -1.16000000 1.00000000
v 0.64000000 -1.11000000 0.00000000
v 0.64000000 -1.11000000 1.00000000
v 0.69000000 -1.06000000 0.00000000
v 0.69000000 -1.06000000 1.00000000
v 0.99000000 -1.06000000 0.00000000
v 0.99000000 -1.06000000 1.00000000
v 1.04000000 -1.11000000 0.00000000
v 1.04000000 -1.11000000 1.00000000
v 3.04000000 -1.11000000 0.00000000
v 3.04000000 -1.11000000 1.00000000
v 3.09000000 -1.06000000 0.00000000
v 3.09000000 -1.06000000 1.00000000
v 3.39000000 -1.06000000 0.00000000
v 3.39000000 -1.06000000 1.00000000
v 3.44000000 -1.11000000 0.00000000
v 3.44000000 -1.11000000 1.00000000
v 3.79000000 -1.11000000 0.00000000
v 3.79000000 -1.11000000 1.00000000
v 3.84000000 -1.06000000 0.00000000
v 3.84000000 -1.06000000 1.00000000
v 4.44000000 -1.06000000 0.00000000
v 4.44000000 -1.06000000 1.00000000
v 4.49000000 -1.11000000 0.00000000
v 4.49000000 -1.11000000 1.00000000
v 4.64000000 -1.11000000 0.00000000
v 4.64000000 -1.11000000 1.00000000
v 4.69000000 -1.06000000 0.00000000
v 4.69000000 -1.06000000 1.00000000
v 6.99000000 -1.06000000 0.00000000
v 6.99000000 -1.06000000 1.00000000
v 7.04000000 -1.11000000 0.00000000
v 7.04000000 -1.11000000 1.00000000
v 7.04000000 -1.16000000 0.00000000
v 7.04000000 -1.16000000 1.00000000
v 7.09000000 -1.16000000 0.00000000
v 7.09000000 -1.16000000 1.00000000
v 7.14000000 -1.21000000 0.00000000
v 7.14000000 -1.21000000 1.00000000
v 7.24000000 -1.21000000 0.00000000
v 7.24000000 -1.21000000 1.00000000
v 7.24000000 -1.11000000 0.00000000
v 7.24000000 -1.11000000 1.00000000
v 7.29000000 -1.06000000 0.00000000
v 7.29000000 -1.06000000 1.00000000
v 7.44000000 -1.06000000 0.00000000
v 7.44000000 -1.06000000 1.00000000
v 7.54000000 -0.96000000 0.00000000
v 7.54000000 -0.96000000 1.00000000
v 7.54000000 -0.81000000 0.00000000
v 7.54000000 -0.81000000 1.00000000
v 7.59000000 -0.76000000 0.00000000
v 7.59000000 -0.76000000 1.00000000
v 7.59000000 -0.66000000 0.00000000
v 7.59000000 -0.66000000 1.00000000
v 7.64000000 -0.61000000 0.00000000
v 7.64000000 -0.61000000 1.00000000
v 7.64000000 -0.41000000 0.00000000
v 7.64000000 -0.41000000 1.00000000
v 7.59000000 -0.41000000 0.00000000
v 7.59000000 -0.41000000 1.00000000
v 7.54000000 -0.36000000 0.00000000
v 7.54000000 -0.36000000 1.00000000
v 7.54000000 0.04000000 0.00000000
v 7.54000000 0.04000000 1.00000000
v 7.49000000 0.09000000 0.00000000
v 7.49000000 0.09000000 1.00000000
v 7.49000000 0.49000000 0.00000000
v 7.49000000 0.49000000 1.00000000
v 7.54000000 0.54000000 0.00000000
v 7.54000000 0.54000000 1.00000000
v 7.54000000 0.84000000 0.00000000
v 7.54000000 0.84000000 1.00000000
v 7.49000000 0.89000000 0.00000000
v 7.49000000 0.89000000 1.00000000
v 7.49000000 1.09000000 0.00000000
v 7.49000000 1.09000000 1.00000000
v 7.54000000 1.14000000 0.00000000
v 7.54000000 1.14000000 1.00000000
v 7.54000000 1.34000000 0.00000000
v 7.54000000 1.34000000 1.00000000
v 7.49000000 1.34000000 0.00000000
v 7.49000000 1.34000000 1.00000000
v 7.44000000 1.39000000 0.00000000
v 7.44000000 1.39000000 1.00000000
v 7.44000000 1.44000000 0.00000000
v 7.44000000 1.44000000 1.00000000
v 7.39000000 1.49000000 0.00000000
v 7.39000000 1.49000000 1.00000000
v 7.44000000 1.54000000 0.00000000
v 7.44000000 1.54000000 1.00000000
v 7.49000000 1.54000000 0.00000000
v 7.49000000 1.54000000 1.00000000
v 7.49000000 1.69000000 0.00000000
v 7.49000000 1.69000000 1.00000000
v 7.54000000 1.74000000 0.00000000
v 7.54000000 1.74000000 1.00000000
v 7.54000000 1.94000000 0.00000000
v 7.54000000 1.94000000 1.00000000
v 7.49000000 1.99000000 0.00000000
v 7.49000000 1.99000000 1.00000000
v 7.49000000 2.04000000 0.00000000
v 7.49000000 2.04000000 1.00000000
v 7.44000000 2.04000000 0.00000000
v 7.44000000 2.04000000 1.00000000
v 7.39000000 2.09000000 0.00000000
v 7.39000000 2.09000000 1.00000000
v 7.39000000 2.34000000 0.00000000
v 7.39000000 2.34000000 1.00000000
v 7.44000000 2.39000000 0.00000000
v 7.44000000 2.39000000 1.00000000
v 7.44000000 2.44000000 0.00000000
v 7.44000000 2.44000000 1.00000000
v 7.49000000 2.49000000 0.00000000
v 7.49000000 2.49000000 1.00000000
v 7.54000000 2.49000000 0.00000000
v 7.54000000 2.49000000 1.00000000
v 7.54000000 2.64000000 0.00000000
v 7.54000000 2.64000000 1.00000000
v 7.59000000 2.69000000 0.00000000
v 7.59000000 2.69000000 1.00000000
v 7.59000000 2.89000000 0.00000000
v 7.59000000 2.89000000 1.00000000
v 7.54000000 2.94000000 0.00000000
v 7.54000000 2.94000000 1.00000000
v 7.54000000 3.09000000 0.00000000
v 7.54000000 3.09000000 1.00000000
v 7.49000000 3.14000000 0.00000000
v 7.49000000 3.14000000 1.00000000
v 7.49000000 3.19000000 0.00000000
v 7.49000000 3.19000000 1.00000000
v 7.44000000 3.24000000 0.00000000
v 7.44000000 3.24000000 1.00000000
v 7.44000000 3.39000000 0.00000000
v 7.44000000 3.39000000 1.00000000
v 7.39000000 3.44000000 0.00000000
v 7.39000000 3.44000000 1.00000000
v 7.39000000 3.64000000 0.00000000
v 7.39000000 3.64000000 1.00000000
v 7.44000000 3.69000000 0.00000000
v 7.44000000 3.69000000 1.00000000
v 7.44000000 3.94000000 0.00000000
v 7.44000000 3.94000000 1.00000000
v 7.29000000 3.94000000 0.00000000
v 7.29000000 3.94000000 1.00000000
v 7.24000000 3.99000000 0.00000000
v 7.24000000 3.99000000 1.00000000
v 7.04000000 3.99000000 0.00000000
v 7.04000000 3.99000000 1.00000000
v 7.04000000 3.94000000 0.00000000
v 7.04000000 3.94000000 1.00000000
v 6.99000000 3.89000000 0.00000000
v 6.99000000 3.89000000 1.00000000
v 6.94000000 3.94000000 0.00000000
v 6.94000000 3.94000000 1.00000000
v 6.79000000 3.94000000 0.00000000
v 6.79000000 3.94000000 1.00000000
v 6.74000000 3.99000000 0.00000000
v 6.74000000 3.99000000 1.00000000
v 6.64000000 3.99000000 0.00000000
v 6.64000000 3.99000000 1.00000000
v 6.54000000 3.89000000 0.00000000
v 6.54000000 3.89000000 1.00000000
v 5.94000000 3.89000000 0.00000000
v 5.94000000 3.89000000 1.00000000
v 5.89000000 3.94000000 0.00000000
v 5.89000000 3.94000000 1.00000000
v 4.94000000 3.94000000 0.00000000
v 4.94000000 3.94000000 1.00000000
v 4.84000000 3.84000000 0.00000000
v 4.84000000 3.84000000 1.00000000
v 4.49000000 3.84000000 0.00000000
v 4.49000000 3.84000000 1.00000000
v 4.44000000 3.89000000 0.00000000
v 4.44000000 3.89000000 1.00000000
v 3.39000000 3.89000000 0.00000000
v 3.39000000 3.89000000 1.00000000
v 3.34000000 3.94000000 0.00000000
v 3.34000000 3.94000000 1.00000000
v 3.04000000 3.94000000 0.00000000
v 3.04000000 3.94000000 1.00000000
v 2.99000000 3.99000000 0.00000000
v 2.99000000 3.99000000 1.00000000
v 2.29000000 3.99000000 0.00000000
v 2.29000000 3.99000000 1.00000000
v 2.24000000 4.04000000 0.00000000
v 2.24000000 4.04000000 1.00000000
v 1.74000000 4.04000000 0.00000000
v 1.74000000 4.04000000 1.00000000
v 1.69000000 3.99000000 0.00000000
v 1.69000000 3.99000000 1.00000000
v 1.14000000 3.99000000 0.00000000
v 1.14000000 3.99000000 1.00000000
v 1.09000000 4.04000000 0.00000000
v 1.09000000 4.04000000 1.00000000
v 1.09000000 4.09000000 0.00000000
v 1.09000000 4.09000000 1.00000000
v 0.89000000 4.09000000 0.00000000
v 0.89000000 4.09000000 1.00000000
v 0.79000000 3.99000000 0.00000000
v 0.79000000 3.99000000 1.00000000
v -0.11000000 3.99000000 0.00000000
v -0.11000000 3.99000000 1.00000000
v -0.16000000 4.04000000 0.00000000
v -0.16000000 4.04000000 1.00000000
v -1.26000000 4.04000000 0.00000000
v -1.26000000 4.04000000 1.00000000
v -1.36000000 4.14000000 0.00000000
v -1.36000000 4.14000000 1.00000000
v -1.46000000 4.14000000 0.00000000
v -1.46000000 4.14000000 1.00000000
v -1.46000000 4.09000000 0.00000000
v -1.46000000 4.09000000 1.00000000
v -1.51000000 4.04000000 0.00000000
v -1.51000000 4.04000000 1.00000000
v -1.56000000 4.09000000 0.00000000
v -1.56000000 4.09000000 1.00000000
v -1.56000000 4.14000000 0.00000000
v -1.56000000 4.14000000 1.00000000
v 6.04000000 -0.96000000 0.00000000
v 6.04000000 -0.96000000 1.00000000
v 6.09000000 -0.91000000 0.00000000
v 6.09000000 -0.91000000 1.00000000
v 6.99000000 -0.91000000 0.00000000
v 6.99000000 -0.91000000 1.00000000
v 7.04000000 -0.96000000 0.00000000
v 7.04000000 -0.96000000 1.00000000
v 6.99000000 -1.01000000 0.00000000
v 6.99000000 -1.01000000 1.00000000
v 6.09000000 -1.01000000 0.00000000
v 6.09000000 -1.01000000 1.00000000
v 1.19000000 -0.91000000 0.00000000
v 1.19000000 -0.91000000 1.00000000
v 1.24000000 -0.86000000 0.00000000
v 1.24000000 -0.86000000 1.00000000
v 1.84000000 -0.86000000 0.00000000
v 1.84000000 -0.86000000 1.00000000
v 1.89000000 -0.91000000 0.00000000
v 1.89000000 -0.91000000 1.00000000
v 3.99000000 -0.91000000 0.00000000
v 3.99000000 -0.91000000 1.00000000
v 4.04000000 -0.86000000 0.00000000
v 4.04000000 -0.86000000 1.00000000
v 4.09000000 -0.91000000 0.00000000
v 4.09000000 -0.91000000 1.00000000
v 4.19000000 -0.91000000 0.00000000
v 4.19000000 -0.91000000 1.00000000
v 4.24000000 -0.86000000 0.00000000
v 4.24000000 -0.86000000 1.00000000
v 4.39000000 -0.86000000 0.00000000
v 4.39000000 -0.86000000 1.00000000
v 4.44000000 -0.91000000 0.00000000
v 4.44000000 -0.91000000 1.00000000
v 5.74000000 -0.91000000 0.00000000
v 5.74000000 -0.91000000 1.00000000
v 5.79000000 -0.96000000 0.00000000
v 5.79000000 -0.96000000 1.00000000
v 5.74000000 -1.01000000 0.00000000
v 5.74000000 -1.01000000 1.00000000
v 2.99000000 -1.01000000 0.00000000
v 2.99000000 -1.01000000 1.00000000
v 2.94000000 -1.06000000 0.00000000
v 2.94000000 -1.06000000 1.00000000
v 2.59000000 -1.06000000 0.00000000
v 2.59000000 -1.06000000 1.00000000
v 2.54000000 -1.01000000 0.00000000
v 2.54000000 -1.01000000 1.00000000
v 2.39000000 -1.01000000 0.00000000
v 2.39000000 -1.01000000 1.00000000
v 2.34000000 -1.06000000 0.00000000
v 2.34000000 -1.06000000 1.00000000
v 1.14000000 -1.06000000 0.00000000
v 1.14000000 -1.06000000 1.00000000
v 1.09000000 -1.01000000 0.00000000
v 1.09000000 -1.01000000 1.00000000
v 0.79000000 -1.01000000 0.00000000
v 0.79000000 -1.01000000 1.00000000
v 0.74000000 -0.96000000 0.00000000
v 0.74000000 -0.96000000 1.00000000
v 0.79000000 -0.91000000 0.00000000
v 0.79000000 -0.91000000 1.00000000
v -2.11000000 1.09000000 0.00000000
v -2.11000000 1.09000000 1.00000000
v -2.06000000 1.14000000 0.00000000
v -2.06000000 1.14000000 1.00000000
v -2.01000000 1.09000000 0.00000000
v -2.01000000 1.09000000 1.00000000
v -2.01000000 -0.41000000 0.00000000
v -2.01000000 -0.41000000 1.00000000
v -1.96000000 -0.41000000 0.00000000
v -1.96000000 -0.41000000 1.00000000
v -1.91000000 -0.46000000 0.00000000
v -1.91000000 -0.46000000 1.00000000
v -1.91000000 -0.51000000 0.00000000
v -1.91000000 -0.51000000 1.00000000
v -1.86000000 -0.56000000 0.00000000
v -1.86000000 -0.56000000 1.00000000
v -1.86000000 -0.61000000 0.00000000
v -1.86000000 -0.61000000 1.00000000
v -1.71000000 -0.76000000 0.00000000
v -1.71000000 -0.76000000 1.00000000
v -1.61000000 -0.76000000 0.00000000
v -1.61000000 -0.76000000 1.00000000
v -1.56000000 -0.81000000 0.00000000
v -1.56000000 -0.81000000 1.00000000
v -1.51000000 -0.81000000 0.00000000
v -1.51000000 -0.81000000 1.00000000
v -1.46000000 -0.86000000 0.00000000
v -1.46000000 -0.86000000 1.00000000
v -1.41000000 -0.86000000 0.00000000
v -1.41000000 -0.86000000 1.00000000
v -1.36000000 -0.91000000 0.00000000
v -1.36000000 -0.91000000 1.00000000
v -1.21000000 -0.91000000 0.00000000
v -1.21000000 -0.91000000 1.00000000
v -1.16000000 -0.96000000 0.00000000
v -1.16000000 -0.96000000 1.00000000
v -0.21000000 -0.96000000 0.00000000
v -0.21000000 -0.96000000 1.00000000
v -0.16000000 -0.91000000 0.00000000
v -0.16000000 -0.91000000 1.00000000
v -0.06000000 -0.91000000 0.00000000
v -0.06000000 -0.91000000 1.00000000
v -0.01000000 -0.96000000 0.00000000
v -0.01000000 -0.96000000 1.00000000
v 0.54000000 -0.96000000 0.00000000
v 0.54000000 -0.96000000 1.00000000
v 0.59000000 -1.01000000 0.00000000
v 0.59000000 -1.01000000 1.00000000
v 0.59000000 -1.06000000 0.00000000
v 0.59000000 -1.06000000 1.00000000
v 0.54000000 -1.11000000 0.00000000
v 0.54000000 -1.11000000 1.00000000
v 0.49000000 -1.06000000 0.00000000
v 0.49000000 -1.06000000 1.00000000
v 0.39000000 -1.06000000 0.00000000
v 0.39000000 -1.06000000 1.00000000
v 0.39000000 -1.11000000 0.00000000
v 0.39000000 -1.11000000 1.00000000
v 0.34000000 -1.16000000 0.00000000
v 0.34000000 -1.16000000 1.00000000
v 0.24000000 -1.16000000 0.00000000
v 0.24000000 -1.16000000 1.00000000
v 0.19000000 -1.11000000 0.00000000
v 0.19000000 -1.11000000 1.00000000
v -0.86000000 -1.11000000 0.00000000
v -0.86000000 -1.11000000 1.00000000
v -0.91000000 -1.06000000 0.00000000
v -0.91000000 -1.06000000 1.00000000
v -1.66000000 -1.06000000 0.00000000
v -1.66000000 -1.06000000 1.00000000
v -1.71000000 -1.01000000 0.00000000
v -1.71000000 -1.01000000 1.00000000
v -2.11000000 -1.01000000 0.00000000
v -2.11000000 -1.01000000 1.00000000
v -2.16000000 -0.96000000 0.00000000
v -2.16000000 -0.96000000 1.00000000
v -2.16000000 -0.91000000 0.00000000
v -2.16000000 -0.91000000 1.00000000
v -2.21000000 -0.86000000 0.00000000
v -2.21000000 -0.86000000 1.00000000
v -2.21000000 -0.76000000 0.00000000
v -2.21000000 -0.76000000 1.00000000
v -2.26000000 -0.71000000 0.00000000
v -2.26000000 -0.71000000 1.00000000
v -2.26000000 -0.66000000 0.00000000
v -2.26000000 -0.66000000 1.00000000
v -2.31000000 -0.61000000 0.00000000
v -2.31000000 -0.61000000 1.00000000
v -2.31000000 0.29000000 0.00000000
v -2.31000000 0.29000000 1.00000000
v -2.26000000 0.34000000 0.00000000
v -2.26000000 0.34000000 1.00000000
v -2.26000000 0.54000000 0.00000000
v -2.26000000 0.54000000 1.00000000
v -2.21000000 0.59000000 0.00000000
v -2.21000000 0.59000000 1.00000000
v -2.21000000 0.79000000 0.00000000
v -2.21000000 0.79000000 1.00000000
v -2.16000000 0.84000000 0.00000000
v -2.16000000 0.84000000 1.00000000
v -2.16000000 0.94000000 0.00000000
v -2.16000000 0.94000000 1.00000000
v -2.11000000 0.99000000 0.00000000
v -2.11000000 0.99000000 1.00000000
v -1.76000000 3.74000000 0.00000000
v -1.76000000 3.74000000 1.00000000
v -1.71000000 3.69000000 0.00000000
v -1.71000000 3.69000000 1.00000000
v -1.71000000 3.64000000 0.00000000
v -1.71000000 3.64000000 1.00000000
v -1.76000000 3.59000000 0.00000000
v -1.76000000 3.59000000 1.00000000
v -1.76000000 3.44000000 0.00000000
v -1.76000000 3.44000000 1.00000000
v -1.81000000 3.39000000 0.00000000
v -1.81000000 3.39000000 1.00000000
v -1.81000000 3.09000000 0.00000000
v -1.81000000 3.09000000 1.00000000
v -1.86000000 3.04000000 0.00000000
v -1.86000000 3.04000000 1.00000000
v -1.86000000 2.64000000 0.00000000
v -1.86000000 2.64000000 1.00000000
v -1.91000000 2.59000000 0.00000000
v -1.91000000 2.59000000 1.00000000
v -1.91000000 1.44000000 0.00000000
v -1.91000000 1.44000000 1.00000000
v -1.96000000 1.39000000 0.00000000
v -1.96000000 1.39000000 1.00000000
v -1.96000000 1.14000000 0.00000000
v -1.96000000 1.14000000 1.00000000
v -2.01000000 1.09000000 0.00000000
v -2.01000000 1.09000000 1.00000000
v -2.06000000 1.14000000 0.00000000
v -2.06000000 1.14000000 1.00000000
v -2.06000000 2.84000000 0.00000000
v -2.06000000 2.84000000 1.00000000
v -2.01000000 2.89000000 0.00000000
v -2.01000000 2.89000000 1.00000000
v -2.01000000 3.19000000 0.00000000
v -2.01000000 3.19000000 1.00000000
v -1.96000000 3.24000000 0.00000000
v -1.96000000 3.24000000 1.00000000
v -1.96000000 3.39000000 0.00000000
v -1.96000000 3.39000000 1.00000000
v -1.91000000 3.44000000 0.00000000
v -1.91000000 3.44000000 1.00000000
v -1.91000000 3.54000000 0.00000000
v -1.91000000 3.54000000 1.00000000
v -1.86000000 3.59000000 0.00000000
v -1.86000000 3.59000000 1.00000000
v -1.86000000 3.64000000 0.00000000
v -1.86000000 3.64000000 1.00000000
v -1.56000000 3.79000000 0.00000000
v -1.56000000 3.79000000 1.00000000
v 0.04000000 3.79000000 0.00000000
v 0.04000000 3.79000000 1.00000000
v 0.09000000 3.74000000 0.00000000
v 0.09000000 3.74000000 1.00000000
v 1.04000000 3.74000000 0.00000000
v 1.04000000 3.74000000 1.00000000
v 1.09000000 3.69000000 0.00000000
v 1.09000000 3.69000000 1.00000000
v 1.99000000 3.69000000 0.00000000
v 1.99000000 3.69000000 1.00000000
v 2.04000000 3.64000000 0.00000000
v 2.04000000 3.64000000 1.00000000
v 2.49000000 3.64000000 0.00000000
v 2.49000000 3.64000000 1.00000000
v 2.54000000 3.59000000 0.00000000
v 2.54000000 3.59000000 1.00000000
v 2.54000000 2.49000000 0.00000000
v 2.54000000 2.49000000 1.00000000
v 2.79000000 2.49000000 0.00000000
v 2.79000000 2.49000000 1.00000000
v 2.79000000 3.64000000 0.00000000
v 2.79000000 3.64000000 1.00000000
v 2.84000000 3.69000000 0.00000000
v 2.84000000 3.69000000 1.00000000
v 4.59000000 3.69000000 0.00000000
v 4.59000000 3.69000000 1.00000000
v 4.64000000 3.64000000 0.00000000
v 4.64000000 3.64000000 1.00000000
v 5.54000000 3.64000000 0.00000000
v 5.54000000 3.64000000 1.00000000
v 5.59000000 3.59000000 0.00000000
v 5.59000000 3.59000000 1.00000000
v 5.59000000 3.54000000 0.00000000
v 5.59000000 3.54000000 1.00000000
v 5.79000000 3.54000000 0.00000000
v 5.79000000 3.54000000 1.00000000
v 5.84000000 3.49000000 0.00000000
v 5.84000000 3.49000000 1.00000000
v 6.49000000 3.49000000 0.00000000
v 6.49000000 3.49000000 1.00000000
v 6.54000000 3.44000000 0.00000000
v 6.54000000 3.44000000 1.00000000
v 6.69000000 3.44000000 0.00000000
v 6.69000000 3.44000000 1.00000000
v 6.74000000 3.39000000 0.00000000
v 6.74000000 3.39000000 1.00000000
v 6.84000000 3.39000000 0.00000000
v 6.84000000 3.39000000 1.00000000
v 6.89000000 3.34000000 0.00000000
v 6.89000000 3.34000000 1.00000000
v 6.94000000 3.34000000 0.00000000
v 6.94000000 3.34000000 1.00000000
v 6.99000000 3.29000000 0.00000000
v 6.99000000 3.29000000 1.00000000
v 7.04000000 3.29000000 0.00000000
v 7.04000000 3.29000000 1.00000000
v 7.19000000 3.14000000 0.00000000
v 7.19000000 3.14000000 1.00000000
v 7.19000000 2.69000000 0.00000000
v 7.19000000 2.69000000 1.00000000
v 7.14000000 2.64000000 0.00000000
v 7.14000000 2.64000000 1.00000000
v 7.14000000 1.99000000 0.00000000
v 7.14000000 1.99000000 1.00000000
v 7.19000000 1.94000000 0.00000000
v 7.19000000 1.94000000 1.00000000
v 7.14000000 1.89000000 0.00000000
v 7.14000000 1.89000000 1.00000000
v 7.14000000 1.74000000 0.00000000
v 7.14000000 1.74000000 1.00000000
v 7.19000000 1.69000000 0.00000000
v 7.19000000 1.69000000 1.00000000
v 7.19000000 1.54000000 0.00000000
v 7.19000000 1.54000000 1.00000000
v 7.14000000 1.49000000 0.00000000
v 7.14000000 1.49000000 1.00000000
v 7.14000000 -0.81000000 0.00000000
v 7.14000000 -0.81000000 1.00000000
v 7.09000000 -0.86000000 0.00000000
v 7.09000000 -0.86000000 1.00000000
v 4.54000000 -0.86000000 0.00000000
v 4.54000000 -0.86000000 1.00000000
v 4.49000000 -0.81000000 0.00000000
v 4.49000000 -0.81000000 1.00000000
v 3.94000000 -0.81000000 0.00000000
v 3.94000000 -0.81000000 1.00000000
v 3.89000000 -0.86000000 0.00000000
v 3.89000000 -0.86000000 1.00000000
v 1.99000000 -0.86000000 0.00000000
v 1.99000000 -0.86000000 1.00000000
v 1.94000000 -0.81000000 0.00000000
v 1.94000000 -0.81000000 1.00000000
v 1.54000000 -0.81000000 0.00000000
v 1.54000000 -0.81000000 1.00000000
v 1.49000000 -0.76000000 0.00000000
v 1.49000000 -0.76000000 1.00000000
v 1.34000000 -0.76000000 0.00000000
v 1.34000000 -0.76000000 1.00000000
v 1.29000000 -0.81000000 0.00000000
v 1.29000000 -0.81000000 1.00000000
v 1.14000000 -0.81000000 0.00000000
v 1.14000000 -0.81000000 1.00000000
v 1.09000000 -0.86000000 0.00000000
v 1.09000000 -0.86000000 1.00000000
v 0.69000000 -0.86000000 0.00000000
v 0.69000000 -0.86000000 1.00000000
v 0.64000000 -0.91000000 0.00000000
v 0.64000000 -0.91000000 1.00000000
v 0.09000000 -0.91000000 0.00000000
v 0.09000000 -0.91000000 1.00000000
v 0.04000000 -0.86000000 0.00000000
v 0.04000000 -0.86000000 1.00000000
v -0.26000000 -0.86000000 0.00000000
v -0.26000000 -0.86000000 1.00000000
v -0.31000000 -0.91000000 0.00000000
v -0.31000000 -0.91000000 1.00000000
v -1.06000000 -0.91000000 0.00000000
v -1.06000000 -0.91000000 1.00000000
v -1.11000000 -0.86000000 0.00000000
v -1.11000000 -0.86000000 1.00000000
v -1.26000000 -0.86000000 0.00000000
v -1.26000000 -0.86000000 1.00000000
v -1.31000000 -0.81000000 0.00000000
v -1.31000000 -0.81000000 1.00000000
v -1.36000000 -0.81000000 0.00000000
v -1.36000000 -0.81000000 1.00000000
v -1.41000000 -0.76000000 0.00000000
v -1.41000000 -0.76000000 1.00000000
v -1.46000000 -0.76000000 0.00000000
v -1.46000000 -0.76000000 1.00000000
v -1.51000000 -0.71000000 0.00000000
v -1.51000000 -0.71000000 1.00000000
v -1.61000000 -0.71000000 0.00000000
v -1.61000000 -0.71000000 1.00000000
v -1.81000000 -0.51000000 0.00000000
v -1.81000000 -0.51000000 1.00000000
v -1.81000000 -0.46000000 0.00000000
v -1.81000000 -0.46000000 1.00000000
v -1.86000000 -0.41000000 0.00000000
v -1.86000000 -0.41000000 1.00000000
v -1.86000000 -0.36000000 0.00000000
v -1.86000000 -0.36000000 1.00000000
v -1.91000000 -0.36000000 0.00000000
v -1.91000000 -0.36000000 1.00000000
v -1.96000000 -0.31000000 0.00000000
v -1.96000000 -0.31000000 1.00000000
v -1.96000000 0.99000000 0.00000000
v -1.96000000 0.99000000 1.00000000
v -1.91000000 1.04000000 0.00000000
v -1.91000000 1.04000000 1.00000000
v -1.91000000 1.29000000 0.00000000
v -1.91000000 1.29000000 1.00000000
v -1.86000000 1.34000000 0.00000000
v -1.86000000 1.34000000 1.00000000
v -1.86000000 1.89000000 0.00000000
v -1.86000000 1.89000000 1.00000000
v -1.81000000 1.94000000 0.00000000
v -1.81000000 1.94000000 1.00000000
v -1.81000000 2.04000000 0.00000000
v -1.81000000 2.04000000 1.00000000
v -1.86000000 2.09000000 0.00000000
v -1.86000000 2.09000000 1.00000000
v -1.86000000 2.49000000 0.00000000
v -1.86000000 2.49000000 1.00000000
v -1.81000000 2.54000000 0.00000000
v -1.81000000 2.54000000 1.00000000
v -1.81000000 2.94000000 0.00000000
v -1.81000000 2.94000000 1.00000000
v -1.76000000 2.99000000 0.00000000
v -1.76000000 2.99000000 1.00000000
v -1.76000000 3.29000000 0.00000000
v -1.76000000 3.29000000 1.00000000
v -1.71000000 3.34000000 0.00000000
v -1.71000000 3.34000000 1.00000000
v -1.71000000 3.49000000 0.00000000
v -1.71000000 3.49000000 1.00000000
v -1.66000000 3.54000000 0.00000000
v -1.66000000 3.54000000 1.00000000
v -1.66000000 3.69000000 0.00000000
v -1.66000000 3.69000000 1.00000000
v 0.14000000 2.69000000 0.00000000
v 0.14000000 2.69000000 1.00000000
v 0.14000000 2.54000000 0.00000000
v 0.14000000 2.54000000 1.00000000
v 0.09000000 2.49000000 0.00000000
v 0.09000000 2.49000000 1.00000000
v 0.09000000 1.99000000 0.00000000
v 0.09000000 1.99000000 1.00000000
v 0.14000000 1.94000000 0.00000000
v 0.14000000 1.94000000 1.00000000
v 0.14000000 1.79000000 0.00000000
v 0.14000000 1.79000000 1.00000000
v 0.09000000 1.74000000 0.00000000
v 0.09000000 1.74000000 1.00000000
v 0.09000000 1.64000000 0.00000000
v 0.09000000 1.64000000 1.00000000
v 0.14000000 1.59000000 0.00000000
v 0.14000000 1.59000000 1.00000000
v 0.14000000 1.24000000 0.00000000
v 0.14000000 1.24000000 1.00000000
v 0.09000000 1.19000000 0.00000000
v 0.09000000 1.19000000 1.00000000
v 0.09000000 0.79000000 0.00000000
v 0.09000000 0.79000000 1.00000000
v 0.14000000 0.74000000 0.00000000
v 0.14000000 0.74000000 1.00000000
v 0.49000000 0.74000000 0.00000000
v 0.49000000 0.74000000 1.00000000
v 0.49000000 1.19000000 0.00000000
v 0.49000000 1.19000000 1.00000000
v 0.44000000 1.24000000 0.00000000
v 0.44000000 1.24000000 1.00000000
v 0.44000000 1.44000000 0.00000000
v 0.44000000 1.44000000 1.00000000
v 0.49000000 1.49000000 0.00000000
v 0.49000000 1.49000000 1.00000000
v 1.89000000 1.49000000 0.00000000
v 1.89000000 1.49000000 1.00000000
v 1.94000000 1.44000000 0.00000000
v 1.94000000 1.44000000 1.00000000
v 2.04000000 1.44000000 0.00000000
v 2.04000000 1.44000000 1.00000000
v 2.09000000 1.49000000 0.00000000
v 2.09000000 1.49000000 1.00000000
v 2.94000000 1.49000000 0.00000000
v 2.94000000 1.49000000 1.00000000
v 2.99000000 1.44000000 0.00000000
v 2.99000000 1.44000000 1.00000000
v 4.09000000 1.44000000 0.00000000
v 4.09000000 1.44000000 1.00000000
v 4.14000000 1.49000000 0.00000000
v 4.14000000 1.49000000 1.00000000
v 4.44000000 1.49000000 0.00000000
v 4.44000000 1.49000000 1.00000000
v 4.49000000 1.44000000 0.00000000
v 4.49000000 1.44000000 1.00000000
v 4.59000000 1.44000000 0.00000000
v 4.59000000 1.44000000 1.00000000
v 4.64000000 1.49000000 0.00000000
v 4.64000000 1.49000000 1.00000000
v 4.74000000 1.49000000 0.00000000
v 4.74000000 1.49000000 1.00000000
v 4.79000000 1.44000000 0.00000000
v 4.79000000 1.44000000 1.00000000
v 4.79000000 1.14000000 0.00000000
v 4.79000000 1.14000000 1.00000000
v 4.84000000 1.09000000 0.00000000
v 4.84000000 1.09000000 1.00000000
v 4.84000000 0.79000000 0.00000000
v 4.84000000 0.79000000 1.00000000
v 4.89000000 0.74000000 0.00000000
v 4.89000000 0.74000000 1.00000000
v 5.19000000 0.74000000 0.00000000
v 5.19000000 0.74000000 1.00000000
v 5.24000000 0.79000000 0.00000000
v 5.24000000 0.79000000 1.00000000
v 5.24000000 2.44000000 0.00000000
v 5.24000000 2.44000000 1.00000000
v 5.29000000 2.49000000 0.00000000
v 5.29000000 2.49000000 1.00000000
v 5.29000000 2.59000000 0.00000000
v 5.29000000 2.59000000 1.00000000
v 5.24000000 2.59000000 0.00000000
v 5.24000000 2.59000000 1.00000000
v 5.19000000 2.64000000 0.00000000
v 5.19000000 2.64000000 1.00000000
v 4.99000000 2.64000000 0.00000000
v 4.99000000 2.64000000 1.00000000
v 4.94000000 2.59000000 0.00000000
v 4.94000000 2.59000000 1.00000000
v 4.94000000 1.84000000 0.00000000
v 4.94000000 1.84000000 1.00000000
v 4.84000000 1.74000000 0.00000000
v 4.84000000 1.74000000 1.00000000
v 3.24000000 1.74000000 0.00000000
v 3.24000000 1.74000000 1.00000000
v 3.19000000 1.69000000 0.00000000
v 3.19000000 1.69000000 1.00000000
v 2.34000000 1.69000000 0.00000000
v 2.34000000 1.69000000 1.00000000
v 2.29000000 1.74000000 0.00000000
v 2.29000000 1.74000000 1.00000000
v 2.29000000 1.79000000 0.00000000
v 2.29000000 1.79000000 1.00000000
v 2.14000000 1.79000000 0.00000000
v 2.14000000 1.79000000 1.00000000
v 2.09000000 1.74000000 0.00000000
v 2.09000000 1.74000000 1.00000000
v 1.59000000 1.74000000 0.00000000
v 1.59000000 1.74000000 1.00000000
v 1.54000000 1.69000000 0.00000000
v 1.54000000 1.69000000 1.00000000
v 1.49000000 1.69000000 0.00000000
v 1.49000000 1.69000000 1.00000000
v 1.44000000 1.74000000 0.00000000
v 1.44000000 1.74000000 1.00000000
v 1.29000000 1.74000000 0.00000000
v 1.29000000 1.74000000 1.00000000
v 1.24000000 1.79000000 0.00000000
v 1.24000000 1.79000000 1.00000000
v 1.14000000 1.79000000 0.00000000
v 1.14000000 1.79000000 1.00000000
v 1.09000000 1.74000000 0.00000000
v 1.09000000 1.74000000 1.00000000
v 0.89000000 1.74000000 0.00000000
v 0.89000000 1.74000000 1.00000000
v 0.84000000 1.79000000 0.00000000
v 0.84000000 1.79000000 1.00000000
v 0.59000000 1.79000000 0.00000000
v 0.59000000 1.79000000 1.00000000
v 0.54000000 1.84000000 0.00000000
v 0.54000000 1.84000000 1.00000000
v 0.49000000 1.84000000 0.00000000
v 0.49000000 1.84000000 1.00000000
v 0.44000000 1.89000000 0.00000000
v 0.44000000 1.89000000 1.00000000
v 0.44000000 2.39000000 0.00000000
v 0.44000000 2.39000000 1.00000000
v 0.49000000 2.44000000 0.00000000
v 0.49000000 2.44000000 1.00000000
v 0.49000000 2.54000000 0.00000000
v 0.49000000 2.54000000 1.00000000
v 0.44000000 2.59000000 0.00000000
v 0.44000000 2.59000000 1.00000000
v 0.44000000 2.69000000 0.00000000
v 0.44000000 2.69000000 1.00000000
v 0.19000000 2.59000000 0.00000000
v 0.19000000 2.59000000 1.00000000
v 0.24000000 2.64000000 0.00000000
v 0.24000000 2.64000000 1.00000000
v 0.34000000 2.64000000 0.00000000
v 0.34000000 2.64000000 1.00000000
v 0.39000000 2.59000000 0.00000000
v 0.39000000 2.59000000 1.00000000
v 0.39000000 1.79000000 0.00000000
v 0.39000000 1.79000000 1.00000000
v 0.44000000 1.79000000 0.00000000
v 0.44000000 1.79000000 1.00000000
v 0.49000000 1.74000000 0.00000000
v 0.49000000 1.74000000 1.00000000
v 0.74000000 1.74000000 0.00000000
v 0.74000000 1.74000000 1.00000000
v 0.79000000 1.69000000 0.00000000
v 0.79000000 1.69000000 1.00000000
v 1.34000000 1.69000000 0.00000000
v 1.34000000 1.69000000 1.00000000
v 1.39000000 1.64000000 0.00000000
v 1.39000000 1.64000000 1.00000000
v 1.64000000 1.64000000 0.00000000
v 1.64000000 1.64000000 1.00000000
v 1.69000000 1.69000000 0.00000000
v 1.69000000 1.69000000 1.00000000
v 2.19000000 1.69000000 0.00000000
v 2.19000000 1.69000000 1.00000000
v 2.24000000 1.64000000 0.00000000
v 2.24000000 1.64000000 1.00000000
v 3.29000000 1.64000000 0.00000000
v 3.29000000 1.64000000 1.00000000
v 3.34000000 1.69000000 0.00000000
v 3.34000000 1.69000000 1.00000000
v 4.94000000 1.69000000 0.00000000
v 4.94000000 1.69000000 1.00000000
v 4.99000000 1.74000000 0.00000000
v 4.99000000 1.74000000 1.00000000
v 4.99000000 2.49000000 0.00000000
v 4.99000000 2.49000000 1.00000000
v 5.09000000 2.59000000 0.00000000
v 5.09000000 2.59000000 1.00000000
v 5.19000000 2.49000000 0.00000000
v 5.19000000 2.49000000 1.00000000
v 5.19000000 0.89000000 0.00000000
v 5.19000000 0.89000000 1.00000000
v 5.09000000 0.79000000 0.00000000
v 5.09000000 0.79000000 1.00000000
v 4.99000000 0.79000000 0.00000000
v 4.99000000 0.79000000 1.00000000
v 4.89000000 0.89000000 0.00000000
v 4.89000000 0.89000000 1.00000000
v 4.89000000 1.29000000 0.00000000
v 4.89000000 1.29000000 1.00000000
v 4.84000000 1.34000000 0.00000000
v 4.84000000 1.34000000 1.00000000
v 4.84000000 1.54000000 0.00000000
v 4.84000000 1.54000000 1.00000000
v 3.89000000 1.54000000 0.00000000
v 3.89000000 1.54000000 1.00000000
v 3.84000000 1.49000000 0.00000000
v 3.84000000 1.49000000 1.00000000
v 3.19000000 1.49000000 0.00000000
v 3.19000000 1.49000000 1.00000000
v 3.14000000 1.54000000 0.00000000
v 3.14000000 1.54000000 1.00000000
v 0.39000000 1.54000000 0.00000000
v 0.39000000 1.54000000 1.00000000
v 0.39000000 0.84000000 0.00000000
v 0.39000000 0.84000000 1.00000000
v 0.34000000 0.79000000 0.00000000
v 0.34000000 0.79000000 1.00000000
v 0.24000000 0.79000000 0.00000000
v 0.24000000 0.79000000 1.00000000
v 0.14000000 0.89000000 0.00000000
v 0.14000000 0.89000000 1.00000000
v 0.14000000 0.99000000 0.00000000
v 0.14000000 0.99000000 1.00000000
v 0.19000000 1.04000000 0.00000000
v 0.19000000 1.04000000 1.00000000
v 0.19000000 1.79000000 0.00000000
v 0.19000000 1.79000000 1.00000000
v 0.24000000 1.84000000 0.00000000
v 0.24000000 1.84000000 1.00000000
v 0.24000000 1.99000000 0.00000000
v 0.24000000 1.99000000 1.00000000
v 0.14000000 2.09000000 0.00000000
v 0.14000000 2.09000000 1.00000000
v 0.14000000 2.39000000 0.00000000
v 0.14000000 2.39000000 1.00000000
v 0.19000000 2.44000000 0.00000000
v 0.19000000 2.44000000 1.00000000
v 4.09000000 3.79000000 0.00000000
v 4.09000000 3.79000000 1.00000000
v 4.14000000 3.84000000 0.00000000
v 4.14000000 3.84000000 1.00000000
v 4.34000000 3.84000000 0.00000000
v 4.34000000 3.84000000 1.00000000
v 4.39000000 3.79000000 0.00000000
v 4.39000000 3.79000000 1.00000000
v 4.34000000 3.74000000 0.00000000
v 4.34000000 3.74000000 1.00000000
v 4.14000000 3.74000000 0.00000000
v 4.14000000 3.74000000 1.00000000
v 7.09000000 3.89000000 0.00000000
v 7.09000000 3.89000000 1.00000000
v 7.14000000 3.94000000 0.00000000
v 7.14000000 3.94000000 1.00000000
v 7.19000000 3.89000000 0.00000000
v 7.19000000 3.89000000 1.00000000
v 7.19000000 3.84000000 0.00000000
v 7.19000000 3.84000000 1.00000000
v 7.34000000 3.84000000 0.00000000
v 7.34000000 3.84000000 1.00000000
v 7.39000000 3.79000000 0.00000000
v 7.39000000 3.79000000 1.00000000
v 7.34000000 3.74000000 0.00000000
v 7.34000000 3.74000000 1.00000000
v 7.34000000 3.34000000 0.00000000
v 7.34000000 3.34000000 1.00000000
v 7.39000000 3.29000000 0.00000000
v 7.39000000 3.29000000 1.00000000
v 7.39000000 3.14000000 0.00000000
v 7.39000000 3.14000000 1.00000000
v 7.44000000 3.09000000 0.00000000
v 7.44000000 3.09000000 1.00000000
v 7.44000000 3.04000000 0.00000000
v 7.44000000 3.04000000 1.00000000
v 7.49000000 2.99000000 0.00000000
v 7.49000000 2.99000000 1.00000000
v 7.49000000 2.89000000 0.00000000
v 7.49000000 2.89000000 1.00000000
v 7.44000000 2.84000000 0.00000000
v 7.44000000 2.84000000 1.00000000
v 7.44000000 2.79000000 0.00000000
v 7.44000000 2.79000000 1.00000000
v 7.39000000 2.74000000 0.00000000
v 7.39000000 2.74000000 1.00000000
v 7.39000000 2.49000000 0.00000000
v 7.39000000 2.49000000 1.00000000
v 7.34000000 2.44000000 0.00000000
v 7.34000000 2.44000000 1.00000000
v 7.34000000 1.39000000 0.00000000
v 7.34000000 1.39000000 1.00000000
v 7.39000000 1.34000000 0.00000000
v 7.39000000 1.34000000 1.00000000
v 7.39000000 1.29000000 0.00000000
v 7.39000000 1.29000000 1.00000000
v 7.44000000 1.24000000 0.00000000
v 7.44000000 1.24000000 1.00000000
v 7.39000000 1.19000000 0.00000000
v 7.39000000 1.19000000 1.00000000
v 7.39000000 1.04000000 0.00000000
v 7.39000000 1.04000000 1.00000000
v 7.44000000 0.99000000 0.00000000
v 7.44000000 0.99000000 1.00000000
v 7.44000000 0.79000000 0.00000000
v 7.44000000 0.79000000 1.00000000
v 7.49000000 0.74000000 0.00000000
v 7.49000000 0.74000000 1.00000000
v 7.44000000 0.69000000 0.00000000
v 7.44000000 0.69000000 1.00000000
v 7.39000000 0.69000000 0.00000000
v 7.39000000 0.69000000 1.00000000
v 7.39000000 0.39000000 0.00000000
v 7.39000000 0.39000000 1.00000000
v 7.44000000 0.34000000 0.00000000
v 7.44000000 0.34000000 1.00000000
v 7.44000000 -0.01000000 0.00000000
v 7.44000000 -0.01000000 1.00000000
v 7.49000000 -0.06000000 0.00000000
v 7.49000000 -0.06000000 1.00000000
v 7.49000000 -0.61000000 0.00000000
v 7.49000000 -0.61000000 1.00000000
v 7.54000000 -0.66000000 0.00000000
v 7.54000000 -0.66000000 1.00000000
v 7.49000000 -0.71000000 0.00000000
v 7.49000000 -0.71000000 1.00000000
v 7.44000000 -0.71000000 0.00000000
v 7.44000000 -0.71000000 1.00000000
v 7.44000000 -0.76000000 0.00000000
v 7.44000000 -0.76000000 1.00000000
v 7.39000000 -0.81000000 0.00000000
v 7.39000000 -0.81000000 1.00000000
v 7.29000000 -0.81000000 0.00000000
v 7.29000000 -0.81000000 1.00000000
v 7.29000000 -0.91000000 0.00000000
v 7.29000000 -0.91000000 1.00000000
v 7.24000000 -0.96000000 0.00000000
v 7.24000000 -0.96000000 1.00000000
v 7.19000000 -0.91000000 0.00000000
v 7.19000000 -0.91000000 1.00000000
v 7.19000000 1.39000000 0.00000000
v 7.19000000 1.39000000 1.00000000
v 7.24000000 1.44000000 0.00000000
v 7.24000000 1.44000000 1.00000000
v 7.24000000 2.04000000 0.00000000
v 7.24000000 2.04000000 1.00000000
v 7.19000000 2.09000000 0.00000000
v 7.19000000 2.09000000 1.00000000
v 7.19000000 2.54000000 0.00000000
v 7.19000000 2.54000000 1.00000000
v 7.24000000 2.59000000 0.00000000
v 7.24000000 2.59000000 1.00000000
v 7.24000000 3.24000000 0.00000000
v 7.24000000 3.24000000 1.00000000
v 7.14000000 3.34000000 0.00000000
v 7.14000000 3.34000000 1.00000000
v 7.09000000 3.34000000 0.00000000
v 7.09000000 3.34000000 1.00000000
v 7.04000000 3.39000000 0.00000000
v 7.04000000 3.39000000 1.00000000
v 6.99000000 3.39000000 0.00000000
v 6.99000000 3.39000000 1.00000000
v 6.94000000 3.44000000 0.00000000
v 6.94000000 3.44000000 1.00000000
v 6.84000000 3.44000000 0.00000000
v 6.84000000 3.44000000 1.00000000
v 6.79000000 3.49000000 0.00000000
v 6.79000000 3.49000000 1.00000000
v 6.64000000 3.49000000 0.00000000
v 6.64000000 3.49000000 1.00000000
v 6.59000000 3.54000000 0.00000000
v 6.59000000 3.54000000 1.00000000
v 5.94000000 3.54000000 0.00000000
v 5.94000000 3.54000000 1.00000000
v 5.89000000 3.59000000 0.00000000
v 5.89000000 3.59000000 1.00000000
v 5.69000000 3.59000000 0.00000000
v 5.69000000 3.59000000 1.00000000
v 5.64000000 3.64000000 0.00000000
v 5.64000000 3.64000000 1.00000000
v 5.64000000 3.69000000 0.00000000
v 5.64000000 3.69000000 1.00000000
v 4.74000000 3.69000000 0.00000000
v 4.74000000 3.69000000 1.00000000
v 4.69000000 3.74000000 0.00000000
v 4.69000000 3.74000000 1.00000000
v 4.74000000 3.79000000 0.00000000
v 4.74000000 3.79000000 1.00000000
v 4.94000000 3.79000000 0.00000000
v 4.94000000 3.79000000 1.00000000
v 5.04000000 3.89000000 0.00000000
v 5.04000000 3.89000000 1.00000000
v 5.09000000 3.84000000 0.00000000
v 5.09000000 3.84000000 1.00000000
v 5.09000000 3.79000000 0.00000000
v 5.09000000 3.79000000 1.00000000
v 5.79000000 3.79000000 0.00000000
v 5.79000000 3.79000000 1.00000000
v 5.84000000 3.84000000 0.00000000
v 5.84000000 3.84000000 1.00000000
v 6.64000000 3.84000000 0.00000000
v 6.64000000 3.84000000 1.00000000
v 6.69000000 3.89000000 0.00000000
v 6.69000000 3.89000000 1.00000000
v 6.84000000 3.89000000 0.00000000
v 6.84000000 3.89000000 1.00000000
v 6.89000000 3.84000000 0.00000000
v 6.89000000 3.84000000 1.00000000
v 7.09000000 3.84000000 0.00000000
v 7.09000000 3.84000000 1.00000000
v 0.99000000 4.04000000 0.00000000
v 0.99000000 4.04000000 1.00000000
v 1.04000000 3.99000000 0.00000000
v 1.04000000 3.99000000 1.00000000
v 1.04000000 3.94000000 0.00000000
v 1.04000000 3.94000000 1.00000000
v 1.79000000 3.94000000 0.00000000
v 1.79000000 3.94000000 1.00000000
v 1.84000000 3.99000000 0.00000000
v 1.84000000 3.99000000 1.00000000
v 1.94000000 3.99000000 0.00000000
v 1.94000000 3.99000000 1.00000000
v 2.04000000 3.89000000 0.00000000
v 2.04000000 3.89000000 1.00000000
v 2.34000000 3.89000000 0.00000000
v 2.34000000 3.89000000 1.00000000
v 2.39000000 3.94000000 0.00000000
v 2.39000000 3.94000000 1.00000000
v 2.44000000 3.89000000 0.00000000
v 2.44000000 3.89000000 1.00000000
v 2.74000000 3.89000000 0.00000000
v 2.74000000 3.89000000 1.00000000
v 2.79000000 3.94000000 0.00000000
v 2.79000000 3.94000000 1.00000000
v 2.84000000 3.89000000 0.00000000
v 2.84000000 3.89000000 1.00000000
v 3.24000000 3.89000000 0.00000000
v 3.24000000 3.89000000 1.00000000
v 3.29000000 3.84000000 0.00000000
v 3.29000000 3.84000000 1.00000000
v 3.89000000 3.84000000 0.00000000
v 3.89000000 3.84000000 1.00000000
v 3.94000000 3.79000000 0.00000000
v 3.94000000 3.79000000 1.00000000
v 3.89000000 3.74000000 0.00000000
v 3.89000000 3.74000000 1.00000000
v 2.74000000 3.74000000 0.00000000
v 2.74000000 3.74000000 1.00000000
v 2.74000000 2.59000000 0.00000000
v 2.74000000 2.59000000 1.00000000
v 2.69000000 2.54000000 0.00000000
v 2.69000000 2.54000000 1.00000000
v 2.64000000 2.54000000 0.00000000
v 2.64000000 2.54000000 1.00000000
v 2.59000000 2.59000000 0.00000000
v 2.59000000 2.59000000 1.00000000
v 2.59000000 3.69000000 0.00000000
v 2.59000000 3.69000000 1.00000000
v 2.14000000 3.69000000 0.00000000
v 2.14000000 3.69000000 1.00000000
v 2.09000000 3.74000000 0.00000000
v 2.09000000 3.74000000 1.00000000
v 1.19000000 3.74000000 0.00000000
v 1.19000000 3.74000000 1.00000000
v 1.14000000 3.79000000 0.00000000
v 1.14000000 3.79000000 1.00000000
v 0.19000000 3.79000000 0.00000000
v 0.19000000 3.79000000 1.00000000
v 0.14000000 3.84000000 0.00000000
v 0.14000000 3.84000000 1.00000000
v 0.14000000 3.89000000 0.00000000
v 0.14000000 3.89000000 1.00000000
v 0.19000000 3.94000000 0.00000000
v 0.19000000 3.94000000 1.00000000
v 0.24000000 3.89000000 0.00000000
v 0.24000000 3.89000000 1.00000000
v 0.39000000 3.89000000 0.00000000
v 0.39000000 3.89000000 1.00000000
v 0.44000000 3.94000000 0.00000000
v 0.44000000 3.94000000 1.00000000
v 0.89000000 3.94000000 0.00000000
v 0.89000000 3.94000000 1.00000000
v -1.71000000 3.99000000 0.00000000
v -1.71000000 3.99000000 1.00000000
v -1.66000000 4.04000000 0.00000000
v -1.66000000 4.04000000 1.00000000
v -1.61000000 3.99000000 0.00000000
v -1.61000000 3.99000000 1.00000000
v -0.31000000 3.99000000 0.00000000
v -0.31000000 3.99000000 1.00000000
v -0.26000000 3.94000000 0.00000000
v -0.26000000 3.94000000 1.00000000
v -0.26000000 3.89000000 0.00000000
v -0.26000000 3.89000000 1.00000000
v -0.31000000 3.84000000 0.00000000
v -0.31000000 3.84000000 1.00000000
v -1.66000000 3.84000000 0.00000000
v -1.66000000 3.84000000 1.00000000
v -1.71000000 3.79000000 0.00000000
v -1.71000000 3.79000000 1.00000000
v -1.81000000 3.89000000 0.00000000
v -1.81000000 3.89000000 1.00000000
v -1.76000000 3.94000000 0.00000000
v -1.76000000 3.94000000 1.00000000
v -1.71000000 3.94000000 0.00000000
v -1.71000000 3.94000000 1.00000000
v -2.76000000 -1.51000000 0.00000000
v 8.64000000 -1.51000000 0.00000000
v 8.64000000 4.59000000 0.00000000
v -2.76000000 4.59000000 0.00000000
f 1 2 3
f 2 4 3
f 3 4 5
f 4 6 5
f 5 6 7
f 6 8 7
f 7 8 1
f 8 2 1
f 9 10 11
f 10 12 11
f 11 12 13
f 12 14 13
f 13 14 15
f 14 16 15
f 15 16 17
f 16 18 17
f 17 18 19
f 18 20 19
f 19 20 21
f 20 22 21
f 21 22 23
f 22 24 23
f 23 24 9
f 24 10 9
f 25 26 27
f 26 28 27
f 27 28 29
f 28 30 29
f 29 30 31
f 30 32 31
f 31 32 33
f 32 34 33
f 33 34 35
f 34 36 35
f 35 36 37
f 36 38 37
f 37 38 39
f 38 40 39
f 39 40 41
f 40 42 41
f 41 42 43
f 42 44 43
f 43 44 45
f 44 46 45
f 45 46 47
f 46 48 47
f 47 48 49
f 48 50 49
f 49 50 51
f 50 52 51
f 51 52 53
f 52 54 53
f 53 54 55
f 54 56 55
f 55 56 57
f 56 58 57
f 57 58 59
f 58 60 59
f 59 60 61
f 60 62 61
f 61 62 63
f 62 64 63
f 63 64 65
f 64 66 65
f 65 66 67
f 66 68 67
f 67 68 69
f 68 70 69
f 69 70 71
f 70 72 71
f 71 72 73
f 72 74 73
f 73 74 75
f 74 76 75
f 75 76 77
f 76 78 77
f 77 78 79
f 78 80 79
f 79 80 81
f 80 82 81
f 81 82 83
f 82 84 83
f 83 84 85
f 84 86 85
f 85 86 87
f 86 88 87
f 87 88 89
f 88 90 89
f 89 90 91
f 90 92 91
f 91 92 93
f 92 94 93
f 93 94 95
f 94 96 95
f 95 96 97
f 96 98 97
f 97 98 99
f 98 100 99
f 99 100 101
f 100 102 101
f 101 102 103
f 102 104 103
f 103 104 105
f 104 106 105
f 105 106 107
f 106 108 107
f 107 108 109
f 108 110 109
f 109 110 111
f 110 112 111
f 111 112 113
f 112 114 113
f 113 114 115
f 114 116 115
f 115 116 117
f 116 118 117
f 117 118 119
f 118 120 119
f 119 120 121
f 120 122 121
f 121 122 123
f 122 124 123
f 123 124 125
f 124 126 125
f 125 126 127
f 126 128 127
f 127 128 129
f 128 130 129
f 129 130 131
f 130 132 131
f 131 132 133
f 132 134 133
f 133 134 135
f 134 136 135
f 135 136 137
f 136 138 137
f 137 138 139
f 138 140 139
f 139 140 141
f 140 142 141
f 141 142 143
f 142 144 143
f 143 144 145
f 144 146 145
f 145 146 147
f 146 148 147
f 147 148 149
f 148 150 149
f 149 150 151
f 150 152 151
f 151 152 153
f 152 154 153
f 153 154 155
f 154 156 155
f 155 156 157
f 156 158 157
f 157 158 159
f 158 160 159
f 159 160 161
f 160 162 161
f 161 162 163
f 162 164 163
f 163 164 165
f 164 166 165
f 165 166 167
f 166 168 167
f 167 168 169
f 168 170 169
f 169 170 171
f 170 172 171
f 171 172 173
f 172 174 173
f 173 174 175
f 174 176 175
f 175 176 177
f 176 178 177
f 177 178 179
f 178 180 179
f 179 180 181
f 180 182 181
f 181 182 183
f 182 184 183
f 183 184 185
f 184 186 185
f 185 186 187
f 186 188 187
f 187 188 189
f 188 190 189
f 189 190 191
f 190 192 191
f 191 192 193
f 192 194 193
f 193 194 195
f 194 196 195
f 195 196 197
f 196 198 197
f 197 198 199
f 198 200 199
f 199 200 201
f 200 202 201
f 201 202 203
f 202 204 203
f 203 204 205
f 204 206 205
f 205 206 207
f 206 208 207
f 207 208 209
f 208 210 209
f 209 210 211
f 210 212 211
f 211 212 213
f 212 214 213
f 213 214 215
f 214 216 215
f 215 216 217
f 216 218 217
f 217 218 219
f 218 220 219
f 219 220 221
f 220 222 221
f 221 222 223
f 222 224 223
f 223 224 225
f 224 226 225
f 225 226 227
f 226 228 227
f 227 228 229
f 228 230 229
f 229 230 231
f 230 232 231
f 231 232 233
f 232 234 233
f 233 234 235
f 234 236 235
f 235 236 237
f 236 238 237
f 237 238 239
f 238 240 239
f 239 240 241
f 240 242 241
f 241 242 243
f 242 244 243
f 243 244 245
f 244 246 245
f 245 246 247
f 246 248 247
f 247 248 249
f 248 250 249
f 249 250 251
f 250 252 251
f 251 252 253
f 252 254 253
f 253 254 255
f 254 256 255
f 255 256 257
f 256 258 257
f 257 258 259
f 258 260 259
f 259 260 261
f 260 262 261
f 261 262 263
f 262 264 263
f 263 264 265
f 264 266 265
f 265 266 267
f 266 268 267
f 267 268 269
f 268 270 269
f 269 270 271
f 270 272 271
f 271 272 273
f 272 274 273
f 273 274 275
f 274 276 275
f 275 276 277
f 276 278 277
f 277 278 279
f 278 280 279
f 279 280 281
f 280 282 281
f 281 282 283
f 282 284 283
f 283 284 285
f 284 286 285
f 285 286 287
f 286 288 287
f 287 288 289
f 288 290 289
f 289 290 291
f 290 292 291
f 291 292 293
f 292 294 293
f 293 294 295
f 294 296 295
f 295 296 297
f 296 298 297
f 297 298 299
f 298 300 299
f 299 300 301
f 300 302 301
f 301 302 303
f 302 304 303
f 303 304 305
f 304 306 305
f 305 306 307
f 306 308 307
f 307 308 309
f 308 310 309
f 309 310 311
f 310 312 311
f 311 312 313
f 312 314 313
f 313 314 315
f 314 316 315
f 315 316 317
f 316 318 317
f 317 318 319
f 318 320 319
f 319 320 321
f 320 322 321
f 321 322 323
f 322 324 323
f 323 324 325
f 324 326 325
f 325 326 327
f 326 328 327
f 327 328 329
f 328 330 329
f 329 330 331
f 330 332 331
f 331 332 333
f 332 334 333
f 333 334 335
f 334 336 335
f 335 336 337
f 336 338 337
f 337 338 339
f 338 340 339
f 339 340 341
f 340 342 341
f 341 342 343
f 342 344 343
f 343 344 345
f 344 346 345
f 345 346 347
f 346 348 347
f 347 348 349
f 348 350 349
f 349 350 351
f 350 352 351
f 351 352 353
f 352 354 353
f 353 354 25
f 354 26 25
f 355 356 357
f 356 358 357
f 357 358 359
f 358 360 359
f 359 360 361
f 360 362 361
f 361 362 363
f 362 364 363
f 363 364 365
f 364 366 365
f 365 366 355
f 366 356 355
f 367 368 369
f 368 370 369
f 369 370 371
f 370 372 371
f 371 372 373
f 372 374 373
f 373 374 375
f 374 376 375
f 375 376 377
f 376 378 377
f 377 378 379
f 378 380 379
f 379 380 381
f 380 382 381
f 381 382 383
f 382 384 383
f 383 384 385
f 384 386 385
f 385 386 387
f 386 388 387
f 387 388 389
f 388 390 389
f 389 390 391
f 390 392 391
f 391 392 393
f 392 394 393
f 393 394 395
f 394 396 395
f 395 396 397
f 396 398 397
f 397 398 399
f 398 400 399
f 399 400 401
f 400 402 401
f 401 402 403
f 402 404 403
f 403 404 405
f 404 406 405
f 405 406 407
f 406 408 407
f 407 408 409
f 408 410 409
f 409 410 411
f 410 412 411
f 411 412 413
f 412 414 413
f 413 414 415
f 414 416 415
f 415 416 367
f 416 368 367
f 417 418 419
f 418 420 419
f 419 420 421
f 420 422 421
f 421 422 423
f 422 424 423
f 423 424 425
f 424 426 425
f 425 426 427
f 426 428 427
f 427 428 429
f 428 430 429
f 429 430 431
f 430 432 431
f 431 432 433
f 432 434 433
f 433 434 435
f 434 436 435
f 435 436 437
f 436 438 437
f 437 438 439
f 438 440 439
f 439 440 441
f 440 442 441
f 441 442 443
f 442 444 443
f 443 444 445
f 444 446 445
f 445 446 447
f 446 448 447
f 447 448 449
f 448 450 449
f 449 450 451
f 450 452 451
f 451 452 453
f 452 454 453
f 453 454 455
f 454 456 455
f 455 456 457
f 456 458 457
f 457 458 459
f 458 460 459
f 459 460 461
f 460 462 461
f 461 462 463
f 462 464 463
f 463 464 465
f 464 466 465
f 465 466 467
f 466 468 467
f 467 468 469
f 468 470 469
f 469 470 471
f 470 472 471
f 471 472 473
f 472 474 473
f 473 474 475
f 474 476 475
f 475 476 477
f 476 478 477
f 477 478 479
f 478 480 479
f 479 480 481
f 480 482 481
f 481 482 483
f 482 484 483
f 483 484 485
f 484 486 485
f 485 486 487
f 486 488 487
f 487 488 489
f 488 490 489
f 489 490 491
f 490 492 491
f 491 492 493
f 492 494 493
f 493 494 495
f 494 496 495
f 495 496 497
f 496 498 497
f 497 498 499
f 498 500 499
f 499 500 501
f 500 502 501
f 501 502 503
f 502 504 503
f 503 504 505
f 504 506 505
f 505 506 507
f 506 508 507
f 507 508 509
f 508 510 509
f 509 510 511
f 510 512 511
f 511 512 513
f 512 514 513
f 513 514 515
f 514 516 515
f 515 516 517
f 516 518 517
f 517 518 519
f 518 520 519
f 519 520 417
f 520 418 417
f 521 522 523
f 522 524 523
f 523 524 525
f 524 526 525
f 525 526 527
f 526 528 527
f 527 528 529
f 528 530 529
f 529 530 531
f 530 532 531
f 531 532 533
f 532 534 533
f 533 534 535
f 534 536 535
f 535 536 537
f 536 538 537
f 537 538 539
f 538 540 539
f 539 540 541
f 540 542 541
f 541 542 543
f 542 544 543
f 543 544 545
f 544 546 545
f 545 546 547
f 546 548 547
f 547 548 549
f 548 550 549
f 549 550 551
f 550 552 551
f 551 552 553
f 552 554 553
f 553 554 555
f 554 556 555
f 555 556 557
f 556 558 557
f 557 558 559
f 558 560 559
f 559 560 561
f 560 562 561
f 561 562 563
f 562 564 563
f 563 564 565
f 564 566 565
f 565 566 567
f 566 568 567
f 567 568 521
f 568 522 521
f 569 570 571
f 570 572 571
f 571 572 573
f 572 574 573
f 573 574 575
f 574 576 575
f 575 576 577
f 576 578 577
f 577 578 579
f 578 580 579
f 579 580 581
f 580 582 581
f 581 582 583
f 582 584 583
f 583 584 585
f 584 586 585
f 585 586 587
f 586 588 587
f 587 588 589
f 588 590 589
f 589 590 591
f 590 592 591
f 591 592 593
f 592 594 593
f 593 594 595
f 594 596 595
f 595 596 597
f 596 598 597
f 597 598 599
f 598 600 599
f 599 600 601
f 600 602 601
f 601 602 603
f 602 604 603
f 603 604 605
f 604 606 605
f 605 606 607
f 606 608 607
f 607 608 609
f 608 610 609
f 609 610 611
f 610 612 611
f 611 612 613
f 612 614 613
f 613 614 615
f 614 616 615
f 615 616 617
f 616 618 617
f 617 618 619
f 618 620 619
f 619 620 621
f 620 622 621
f 621 622 623
f 622 624 623
f 623 624 625
f 624 626 625
f 625 626 627
f 626 628 627
f 627 628 629
f 628 630 629
f 629 630 631
f 630 632 631
f 631 632 633
f 632 634 633
f 633 634 635
f 634 636 635
f 635 636 637
f 636 638 637
f 637 638 639
f 638 640 639
f 639 640 641
f 640 642 641
f 641 642 643
f 642 644 643
f 643 644 645
f 644 646 645
f 645 646 647
f 646 648 647
f 647 648 649
f 648 650 649
f 649 650 651
f 650 652 651
f 651 652 653
f 652 654 653
f 653 654 655
f 654 656 655
f 655 656 657
f 656 658 657
f 657 658 659
f 658 660 659
f 659 660 661
f 660 662 661
f 661 662 663
f 662 664 663
f 663 664 665
f 664 666 665
f 665 666 667
f 666 668 667
f 667 668 669
f 668 670 669
f 669 670 671
f 670 672 671
f 671 672 673
f 672 674 673
f 673 674 675
f 674 676 675
f 675 676 677
f 676 678 677
f 677 678 679
f 678 680 679
f 679 680 681
f 680 682 681
f 681 682 683
f 682 684 683
f 683 684 685
f 684 686 685
f 685 686 687
f 686 688 687
f 687 688 689
f 688 690 689
f 689 690 691
f 690 692 691
f 691 692 693
f 692 694 693
f 693 694 695
f 694 696 695
f 695 696 697
f 696 698 697
f 697 698 699
f 698 700 699
f 699 700 701
f 700 702 701
f 701 702 703
f 702 704 703
f 703 704 705
f 704 706 705
f 705 706 707
f 706 708 707
f 707 708 709
f 708 710 709
f 709 710 711
f 710 712 711
f 711 712 713
f 712 714 713
f 713 714 715
f 714 716 715
f 715 716 717
f 716 718 717
f 717 718 719
f 718 720 719
f 719 720 721
f 720 722 721
f 721 722 723
f 722 724 723
f 723 724 725
f 724 726 725
f 725 726 727
f 726 728 727
f 727 728 729
f 728 730 729
f 729 730 731
f 730 732 731
f 731 732 733
f 732 734 733
f 733 734 735
f 734 736 735
f 735 736 737
f 736 738 737
f 737 738 739
f 738 740 739
f 739 740 741
f 740 742 741
f 741 742 743
f 742 744 743
f 743 744 745
f 744 746 745
f 745 746 747
f 746 748 747
f 747 748 749
f 748 750 749
f 749 750 569
f 750 570 569
f 751 752 753
f 752 754 753
f 753 754 755
f 754 756 755
f 755 756 757
f 756 758 757
f 757 758 759
f 758 760 759
f 759 760 761
f 760 762 761
f 761 762 763
f 762 764 763
f 763 764 765
f 764 766 765
f 765 766 767
f 766 768 767
f 767 768 769
f 768 770 769
f 769 770 771
f 770 772 771
f 771 772 773
f 772 774 773
f 773 774 775
f 774 776 775
f 775 776 777
f 776 778 777
f 777 778 779
f 778 780 779
f 779 780 781
f 780 782 781
f 781 782 783
f 782 784 783
f 783 784 785
f 784 786 785
f 785 786 787
f 786 788 787
f 787 788 789
f 788 790 789
f 789 790 791
f 790 792 791
f 791 792 793
f 792 794 793
f 793 794 795
f 794 796 795
f 795 796 797
f 796 798 797
f 797 798 799
f 798 800 799
f 799 800 801
f 800 802 801
f 801 802 803
f 802 804 803
f 803 804 805
f 804 806 805
f 805 806 807
f 806 808 807
f 807 808 809
f 808 810 809
f 809 810 811
f 810 812 811
f 811 812 813
f 812 814 813
f 813 814 815
f 814 816 815
f 815 816 817
f 816 818 817
f 817 818 819
f 818 820 819
f 819 820 821
f 820 822 821
f 821 822 823
f 822 824 823
f 823 824 825
f 824 826 825
f 825 826 827
f 826 828 827
f 827 828 829
f 828 830 829
f 829 830 831
f 830 832 831
f 831 832 833
f 832 834 833
f 833 834 835
f 834 836 835
f 835 836 837
f 836 838 837
f 837 838 839
f 838 840 839
f 839 840 841
f 840 842 841
f 841 842 843
f 842 844 843
f 843 844 845
f 844 846 845
f 845 846 847
f 846 848 847
f 847 848 849
f 848 850 849
f 849 850 851
f 850 852 851
f 851 852 853
f 852 854 853
f 853 854 855
f 854 856 855
f 855 856 857
f 856 858 857
f 857 858 859
f 858 860 859
f 859 860 861
f 860 862 861
f 861 862 863
f 862 864 863
f 863 864 865
f 864 866 865
f 865 866 867
f 866 868 867
f 867 868 869
f 868 870 869
f 869 870 871
f 870 872 871
f 871 872 873
f 872 874 873
f 873 874 875
f 874 876 875
f 875 876 877
f 876 878 877
f 877 878 879
f 878 880 879
f 879 880 881
f 880 882 881
f 881 882 883
f 882 884 883
f 883 884 885
f 884 886 885
f 885 886 887
f 886 888 887
f 887 888 889
f 888 890 889
f 889 890 891
f 890 892 891
f 891 892 893
f 892 894 893
f 893 894 895
f 894 896 895
f 895 896 751
f 896 752 751
f 897 898 899
f 898 900 899
f 899 900 901
f 900 902 901
f 901 902 903
f 902 904 903
f 903 904 905
f 904 906 905
f 905 906 907
f 906 908 907
f 907 908 909
f 908 910 909
f 909 910 911
f 910 912 911
f 911 912 913
f 912 914 913
f 913 914 915
f 914 916 915
f 915 916 917
f 916 918 917
f 917 918 919
f 918 920 919
f 919 920 921
f 920 922 921
f 921 922 923
f 922 924 923
f 923 924 925
f 924 926 925
f 925 926 927
f 926 928 927
f 927 928 929
f 928 930 929
f 929 930 931
f 930 932 931
f 931 932 933
f 932 934 933
f 933 934 935
f 934 936 935
f 935 936 937
f 936 938 937
f 937 938 939
f 938 940 939
f 939 940 941
f 940 942 941
f 941 942 943
f 942 944 943
f 943 944 945
f 944 946 945
f 945 946 947
f 946 948 947
f 947 948 949
f 948 950 949
f 949 950 951
f 950 952 951
f 951 952 953
f 952 954 953
f 953 954 955
f 954 956 955
f 955 956 957
f 956 958 957
f 957 958 959
f 958 960 959
f 959 960 961
f 960 962 961
f 961 962 963
f 962 964 963
f 963 964 965
f 964 966 965
f 965 966 967
f 966 968 967
f 967 968 969
f 968 970 969
f 969 970 971
f 970 972 971
f 971 972 973
f 972 974 973
f 973 974 975
f 974 976 975
f 975 976 977
f 976 978 977
f 977 978 979
f 978 980 979
f 979 980 981
f 980 982 981
f 981 982 983
f 982 984 983
f 983 984 985
f 984 986 985
f 985 986 987
f 986 988 987
f 987 988 897
f 988 898 897
f 989 990 991
f 990 992 991
f 991 992 993
f 992 994 993
f 993 994 995
f 994 996 995
f 995 996 997
f 996 998 997
f 997 998 999
f 998 1000 999
f 999 1000 989
f 1000 990 989
f 1001 1002 1003
f 1002 1004 1003
f 1003 1004 1005
f 1004 1006 1005
f 1005 1006 1007
f 1006 1008 1007
f 1007 1008 1009
f 1008 1010 1009
f 1009 1010 1011
f 1010 1012 1011
f 1011 1012 1013
f 1012 1014 1013
f 1013 1014 1015
f 1014 1016 1015
f 1015 1016 1017
f 1016 1018 1017
f 1017 1018 1019
f 1018 1020 1019
f 1019 1020 1021
f 1020 1022 1021
f 1021 1022 1023
f 1022 1024 1023
f 1023 1024 1025
f 1024 1026 1025
f 1025 1026 1027
f 1026 1028 1027
f 1027 1028 1029
f 1028 1030 1029
f 1029 1030 1031
f 1030 1032 1031
f 1031 1032 1033
f 1032 1034 1033
f 1033 1034 1035
f 1034 1036 1035
f 1035 1036 1037
f 1036 1038 1037
f 1037 1038 1039
f 1038 1040 1039
f 1039 1040 1041
f 1040 1042 1041
f 1041 1042 1043
f 1042 1044 1043
f 1043 1044 1045
f 1044 1046 1045
f 1045 1046 1047
f 1046 1048 1047
f 1047 1048 1049
f 1048 1050 1049
f 1049 1050 1051
f 1050 1052 1051
f 1051 1052 1053
f 1052 1054 1053
f 1053 1054 1055
f 1054 1056 1055
f 1055 1056 1057
f 1056 1058 1057
f 1057 1058 1059
f 1058 1060 1059
f 1059 1060 1061
f 1060 1062 1061
f 1061 1062 1063
f 1062 1064 1063
f 1063 1064 1065
f 1064 1066 1065
f 1065 1066 1067
f 1066 1068 1067
f 1067 1068 1069
f 1068 1070 1069
f 1069 1070 1071
f 1070 1072 1071
f 1071 1072 1073
f 1072 1074 1073
f 1073 1074 1075
f 1074 1076 1075
f 1075 1076 1077
f 1076 1078 1077
f 1077 1078 1079
f 1078 1080 1079
f 1079 1080 1081
f 1080 1082 1081
f 1081 1082 1083
f 1082 1084 1083
f 1083 1084 1085
f 1084 1086 1085
f 1085 1086 1087
f 1086 1088 1087
f 1087 1088 1089
f 1088 1090 1089
f 1089 1090 1091
f 1090 1092 1091
f 1091 1092 1093
f 1092 1094 1093
f 1093 1094 1095
f 1094 1096 1095
f 1095 1096 1097
f 1096 1098 1097
f 1097 1098 1099
f 1098 1100 1099
f 1099 1100 1101
f 1100 1102 1101
f 1101 1102 1103
f 1102 1104 1103
f 1103 1104 1105
f 1104 1106 1105
f 1105 1106 1107
f 1106 1108 1107
f 1107 1108 1109
f 1108 1110 1109
f 1109 1110 1111
f 1110 1112 1111
f 1111 1112 1113
f 1112 1114 1113
f 1113 1114 1115
f 1114 1116 1115
f 1115 1116 1117
f 1116 1118 1117
f 1117 1118 1119
f 1118 1120 1119
f 1119 1120 1121
f 1120 1122 1121
f 1121 1122 1123
f 1122 1124 1123
f 1123 1124 1125
f 1124 1126 1125
f 1125 1126 1127
f 1126 1128 1127
f 1127 1128 1129
f 1128 1130 1129
f 1129 1130 1131
f 1130 1132 1131
f 1131 1132 1133
f 1132 1134 1133
f 1133 1134 1135
f 1134 1136 1135
f 1135 1136 1137
f 1136 1138 1137
f 1137 1138 1139
f 1138 1140 1139
f 1139 1140 1141
f 1140 1142 1141
f 1141 1142 1143
f 1142 1144 1143
f 1143 1144 1145
f 1144 1146 1145
f 1145 1146 1147
f 1146 1148 1147
f 1147 1148 1149
f 1148 1150 1149
f 1149 1150 1151
f 1150 1152 1151
f 1151 1152 1153
f 1152 1154 1153
f 1153 1154 1155
f 1154 1156 1155
f 1155 1156 1157
f 1156 1158 1157
f 1157 1158 1001
f 1158 1002 1001
f 1159 1160 1161
f 1160 1162 1161
f 1161 1162 1163
f 1162 1164 1163
f 1163 1164 1165
f 1164 1166 1165
f 1165 1166 1167
f 1166 1168 1167
f 1167 1168 1169
f 1168 1170 1169
f 1169 1170 1171
f 1170 1172 1171
f 1171 1172 1173
f 1172 1174 1173
f 1173 1174 1175
f 1174 1176 1175
f 1175 1176 1177
f 1176 1178 1177
f 1177 1178 1179
f 1178 1180 1179
f 1179 1180 1181
f 1180 1182 1181
f 1181 1182 1183
f 1182 1184 1183
f 1183 1184 1185
f 1184 1186 1185
f 1185 1186 1187
f 1186 1188 1187
f 1187 1188 1189
f 1188 1190 1189
f 1189 1190 1191
f 1190 1192 1191
f 1191 1192 1193
f 1192 1194 1193
f 1193 1194 1195
f 1194 1196 1195
f 1195 1196 1197
f 1196 1198 1197
f 1197 1198 1199
f 1198 1200 1199
f 1199 1200 1201
f 1200 1202 1201
f 1201 1202 1203
f 1202 1204 1203
f 1203 1204 1205
f 1204 1206 1205
f 1205 1206 1207
f 1206 1208 1207
f 1207 1208 1209
f 1208 1210 1209
f 1209 1210 1211
f 1210 1212 1211
f 1211 1212 1213
f 1212 1214 1213
f 1213 1214 1215
f 1214 1216 1215
f 1215 1216 1217
f 1216 1218 1217
f 1217 1218 1219
f 1218 1220 1219
f 1219 1220 1221
f 1220 1222 1221
f 1221 1222 1223
f 1222 1224 1223
f 1223 1224 1225
f 1224 1226 1225
f 1225 1226 1227
f 1226 1228 1227
f 1227 1228 1229
f 1228 1230 1229
f 1229 1230 1159
f 1230 1160 1159
f 1231 1232 1233
f 1232 1234 1233
f 1233 1234 1235
f 1234 1236 1235
f 1235 1236 1237
f 1236 1238 1237
f 1237 1238 1239
f 1238 1240 1239
f 1239 1240 1241
f 1240 1242 1241
f 1241 1242 1243
f 1242 1244 1243
f 1243 1244 1245
f 1244 1246 1245
f 1245 1246 1247
f 1246 1248 1247
f 1247 1248 1249
f 1248 1250 1249
f 1249 1250 1251
f 1250 1252 1251
f 1251 1252 1253
f 1252 1254 1253
f 1253 1254 1231
f 1254 1232 1231
f 1255 1256 1257
f 1255 1257 1258

